<svg xmlns="http://www.w3.org/2000/svg" viewBox="0 0 106.19 30.25"><defs><style>.cls-1{fill:#fff;}</style></defs><title>Asset 3</title><g id="Layer_2" data-name="Layer 2"><g id="Layer_1-2" data-name="Layer 1"><path class="cls-1" d="M9.82,23.57H6.59a.91.91,0,0,0-.91.89.89.89,0,0,0,.91.88H8.88v2.17a4.73,4.73,0,0,1-2.8.88,3.87,3.87,0,0,1-3.94-4.14v0A3.92,3.92,0,0,1,5.9,20.13,4.41,4.41,0,0,1,8.71,21a1.07,1.07,0,0,0,.63.23,1,1,0,0,0,1-1,1,1,0,0,0-.41-.83,6.29,6.29,0,0,0-4-1.18,5.91,5.91,0,0,0-6,6v0a5.75,5.75,0,0,0,6,6A7.39,7.39,0,0,0,10.14,29a1.41,1.41,0,0,0,.71-1.29V24.6A1,1,0,0,0,9.82,23.57Z"/><path class="cls-1" d="M17.48,21.19a2.78,2.78,0,0,0-2.2,1.92v-.89a1,1,0,0,0-1-1,1,1,0,0,0-1,1v6.92a1,1,0,0,0,1,1,1,1,0,0,0,1-1V26.56c0-2.07,1-3.16,2.4-3.41a.94.94,0,0,0,.8-1A.93.93,0,0,0,17.48,21.19Z"/><path class="cls-1" d="M23.18,21.19a7.5,7.5,0,0,0-2.82.51.88.88,0,0,0-.55.8.83.83,0,0,0,.84.83,1.13,1.13,0,0,0,.31,0,5.2,5.2,0,0,1,1.94-.35c1.41,0,2.17.66,2.17,1.91V25a7.31,7.31,0,0,0-2.35-.36c-2.14,0-3.61.93-3.61,2.82v0c0,1.76,1.46,2.7,3.1,2.7A3.55,3.55,0,0,0,25.06,29v.33a.91.91,0,0,0,1,.84,1,1,0,0,0,1-1V24.87a3.63,3.63,0,0,0-.94-2.7A3.92,3.92,0,0,0,23.18,21.19Zm1.94,5.72c0,1.11-1,1.87-2.34,1.87-1,0-1.71-.48-1.71-1.33v0c0-.91.76-1.46,2.05-1.46a5.56,5.56,0,0,1,2,.35Z"/><path class="cls-1" d="M34.16,21.12a3.17,3.17,0,0,0-2.73,1.52v-.43a1,1,0,0,0-1-1,1,1,0,0,0-1,1v6.92a1,1,0,0,0,2,0v-4a2,2,0,0,1,2-2.17c1.19,0,1.87.78,1.87,2.14v4.06a1,1,0,0,0,1,1,1,1,0,0,0,1-1V24.47C37.27,22.45,36.13,21.12,34.16,21.12Z"/><path class="cls-1" d="M43.17,21.19a7.5,7.5,0,0,0-2.82.51.87.87,0,0,0-.55.8.83.83,0,0,0,.84.83,1.13,1.13,0,0,0,.31,0,5.2,5.2,0,0,1,1.94-.35c1.41,0,2.17.66,2.17,1.91V25a7.31,7.31,0,0,0-2.35-.36c-2.14,0-3.61.93-3.61,2.82v0c0,1.76,1.46,2.7,3.1,2.7A3.55,3.55,0,0,0,45.06,29v.33a.91.91,0,0,0,1,.84,1,1,0,0,0,1-1V24.87a3.63,3.63,0,0,0-.94-2.7A3.92,3.92,0,0,0,43.17,21.19Zm1.94,5.72c0,1.11-1,1.87-2.34,1.87-1,0-1.71-.48-1.71-1.33v0c0-.91.76-1.46,2.05-1.46a5.56,5.56,0,0,1,2,.35Z"/><path class="cls-1" d="M57,17.88a1,1,0,0,0-1,1v3.79a3.58,3.58,0,0,0-3-1.54c-2.09,0-4.06,1.64-4.06,4.54v0A4.19,4.19,0,0,0,53,30.23a3.5,3.5,0,0,0,3-1.64v.55a1,1,0,0,0,2,0V18.87A1,1,0,0,0,57,17.88ZM56,25.7a2.63,2.63,0,0,1-2.53,2.8A2.6,2.6,0,0,1,51,25.7v0a2.56,2.56,0,0,1,2.52-2.8A2.62,2.62,0,0,1,56,25.66Z"/><path class="cls-1" d="M64,21.19a7.5,7.5,0,0,0-2.82.51.88.88,0,0,0-.55.8.83.83,0,0,0,.84.83,1.13,1.13,0,0,0,.31,0,5.2,5.2,0,0,1,1.94-.35c1.41,0,2.17.66,2.17,1.91V25a7.31,7.31,0,0,0-2.35-.36c-2.14,0-3.61.93-3.61,2.82v0c0,1.76,1.46,2.7,3.1,2.7A3.55,3.55,0,0,0,65.9,29v.33a.91.91,0,0,0,1,.84,1,1,0,0,0,1-1V24.87a3.63,3.63,0,0,0-.94-2.7A3.92,3.92,0,0,0,64,21.19Zm1.94,5.72c0,1.11-1,1.87-2.34,1.87-1,0-1.71-.48-1.71-1.33v0c0-.91.76-1.46,2.05-1.46a5.56,5.56,0,0,1,2,.35Z"/><path class="cls-1" d="M85.83,18.39h-.22a1,1,0,0,0-.93.53l-3.53,5.52-3.51-5.5a1.07,1.07,0,0,0-.94-.55h-.22a1,1,0,0,0-1,1v9.72a1,1,0,0,0,1,1,1,1,0,0,0,1-1V22.2l2.82,4.22a1,1,0,0,0,1.71,0l2.83-4.26v7a1,1,0,0,0,1,1,1,1,0,0,0,1-1V19.42A1,1,0,0,0,85.83,18.39Z"/><path class="cls-1" d="M93.09,21.19a7.5,7.5,0,0,0-2.82.51.87.87,0,0,0-.55.8.83.83,0,0,0,.84.83,1.13,1.13,0,0,0,.31,0,5.2,5.2,0,0,1,1.94-.35c1.41,0,2.17.66,2.17,1.91V25a7.31,7.31,0,0,0-2.35-.36c-2.14,0-3.61.93-3.61,2.82v0c0,1.76,1.46,2.7,3.1,2.7A3.55,3.55,0,0,0,95,29v.33a.91.91,0,0,0,1,.84,1,1,0,0,0,1-1V24.87a3.63,3.63,0,0,0-.94-2.7A3.92,3.92,0,0,0,93.09,21.19ZM95,26.9c0,1.11-1,1.87-2.34,1.87-1,0-1.71-.48-1.71-1.33v0C91,26.51,91.74,26,93,26a5.56,5.56,0,0,1,2,.35Z"/><path class="cls-1" d="M100.44,17.88a1,1,0,0,0-1,1V29.14a1,1,0,0,0,2,0V18.87A1,1,0,0,0,100.44,17.88Z"/><path class="cls-1" d="M105.18,17.88a1,1,0,0,0-1,1V29.14a1,1,0,0,0,2,0V18.87A1,1,0,0,0,105.18,17.88Z"/><path class="cls-1" d="M102.09,2.25a1.07,1.07,0,0,0,1.1-1.1,1.1,1.1,0,1,0-2.21,0A1.07,1.07,0,0,0,102.09,2.25Z"/><path class="cls-1" d="M106,10.71a.92.92,0,0,0-.7-.33h-2.2c-1.9,0-2.94-.89-2.94-2.51a2.17,2.17,0,0,1,2.47-2.28,4.85,4.85,0,0,1,1.21.24c.86.24,1.76.5,2-.34a.73.73,0,0,0-.13-.68c-.52-.71-2.16-1-3.1-1-2.77,0-4.56,1.56-4.56,4a4.35,4.35,0,0,0,.81,2.63H97.37c-.77,0-1.58-.16-1.73-1.34l0-3.77a1,1,0,0,0-1-1,1,1,0,0,0-1,1v6.25A2.8,2.8,0,0,1,93.38,13a1.21,1.21,0,0,1-1.12.49c-.68,0-1.14.35-1.14.87,0,.95.88.95,1.26.95,2,0,3.1-1.07,3.27-3.26v-.37a2.75,2.75,0,0,0,1.73.49h7.9a1,1,0,0,0,.91-.78A.88.88,0,0,0,106,10.71Z"/><path class="cls-1" d="M88.68,2.25a1.07,1.07,0,0,0,1.1-1.1,1.1,1.1,0,1,0-2.21,0A1.07,1.07,0,0,0,88.68,2.25Z"/><path class="cls-1" d="M90.86,11.26a4.24,4.24,0,0,0,1-2.93V5.27a1,1,0,0,0-1-1,1,1,0,0,0-1,1V8.06a2.51,2.51,0,0,1-.77,2.08,2,2,0,0,1-1.23.39,1.52,1.52,0,0,1-1.25-.59,2.36,2.36,0,0,1-.44-1.45V1a1,1,0,0,0-1-1,1,1,0,0,0-1,1v7.7a3.66,3.66,0,0,0,1,2.71,4,4,0,0,0,2.89,1A3.69,3.69,0,0,0,90.86,11.26Z"/><path class="cls-1" d="M82.59,8a4.12,4.12,0,0,0-1.42-3.16,4.35,4.35,0,0,0-3.59-.89,7.18,7.18,0,0,0-4,2.16V1a1,1,0,1,0-2,0V9.11a8.17,8.17,0,0,0-.49,1.27h-.56c-1.22,0-1.69-.09-1.69-1.1V8.1a3.94,3.94,0,0,0-4.09-4.33,4.17,4.17,0,0,0-3,1.17A4.41,4.41,0,0,0,60.41,8.1a4.12,4.12,0,0,0,1.2,3,4,4,0,0,0,2.89,1.23,4.08,4.08,0,0,0,2.87-1.07,2,2,0,0,0,.55.45,5.19,5.19,0,0,0,2.55.5h6.37C80.23,12.19,82.59,10.46,82.59,8ZM79.42,9.84a5.56,5.56,0,0,1-2.49.54H73.27A6,6,0,0,1,77.73,5.9a2.47,2.47,0,0,1,2.07.45,2.32,2.32,0,0,1,.78,1.83A1.9,1.9,0,0,1,79.42,9.84ZM66.86,8.1V9.51a3,3,0,0,1-2.28,1,2,2,0,0,1-1.42-.62,2.46,2.46,0,0,1-.66-1.77,2.7,2.7,0,0,1,.59-1.7,2.12,2.12,0,0,1,1.69-.78C66,5.63,66.86,6.62,66.86,8.1Z"/><path class="cls-1" d="M66,2.25a1.07,1.07,0,0,0,1.1-1.1,1.1,1.1,0,1,0-2.21,0A1.07,1.07,0,0,0,66,2.25Z"/><path class="cls-1" d="M63.26,2.25a1.07,1.07,0,0,0,1.1-1.1,1.1,1.1,0,1,0-2.21,0A1.07,1.07,0,0,0,63.26,2.25Z"/><path class="cls-1" d="M46.41,10.38H46V7.59a3.46,3.46,0,0,0-3.78-3.82,4,4,0,0,0-3,1.3,4.6,4.6,0,0,0-1.13,3.11,3.61,3.61,0,0,0,1.37,3.08A5.86,5.86,0,0,0,43,12.2h.95c-.17,1-.75,1.45-2,1.45a6,6,0,0,1-.92-.09,1.72,1.72,0,0,0-1.15.06h0a.87.87,0,0,0-.36.71c0,.94,1.14,1,2.51,1a4,4,0,0,0,2.66-.77,4,4,0,0,0,1.25-2.39h.47Zm-2.44,0h-.88c-1.91,0-2.94-.36-2.94-2.27a3.36,3.36,0,0,1,.43-1.81,1.69,1.69,0,0,1,1.52-.78,1.61,1.61,0,0,1,1.44.71A3.4,3.4,0,0,1,44,8.14Z"/><path class="cls-1" d="M35.9,0a1.14,1.14,0,0,0-1.09,1.09v9.38a3.33,3.33,0,0,1-.66,2.29,2.59,2.59,0,0,1-2,.73,3,3,0,0,1-2-.65,2.62,2.62,0,0,1-.77-2,7.11,7.11,0,0,1,.49-2.41v0a1.16,1.16,0,0,0-.66-1.42,1.09,1.09,0,0,0-1.38.61A10.55,10.55,0,0,0,27,10.71c0,2.87,2,4.73,5,4.73a5.33,5.33,0,0,0,3.63-1.17A4.35,4.35,0,0,0,37,10.87V1.09A1.11,1.11,0,0,0,35.9,0Z"/><path class="cls-1" d="M52.45,3.77a4,4,0,0,0-3,1.3,4.51,4.51,0,0,0-1.15,3.07v1a1.15,1.15,0,0,1-1.19,1.21h.37v1.82h.08A3,3,0,0,0,49,11.83a1.83,1.83,0,0,0,.63-.58,4,4,0,0,0,2.9,1.13,4.15,4.15,0,0,0,2.94-1.18A4.26,4.26,0,0,0,56.7,8.14,4.08,4.08,0,0,0,52.45,3.77Zm1.61,6.07a2.26,2.26,0,0,1-1.73.73,3.24,3.24,0,0,1-2.24-1V8.14a2.28,2.28,0,0,1,2.39-2.51,2,2,0,0,1,1.61.72,2.77,2.77,0,0,1,.59,1.79A2.52,2.52,0,0,1,54.06,9.84Z"/><path class="cls-1" d="M47.08,10.38h-.67v1.82h1V10.38Z"/></g></g></svg>