<svg xmlns="http://www.w3.org/2000/svg" viewBox="0 0 145.15 30.25"><defs><style>.cls-1{fill:#fff;}</style></defs><title>Asset 6</title><g id="Layer_2" data-name="Layer 2"><g id="Layer_1-2" data-name="Layer 1"><path class="cls-1" d="M9.82,23.57H6.59a.91.91,0,0,0-.91.89.89.89,0,0,0,.91.88H8.88v2.17a4.73,4.73,0,0,1-2.8.88,3.87,3.87,0,0,1-3.94-4.14v0A3.92,3.92,0,0,1,5.9,20.13,4.41,4.41,0,0,1,8.71,21a1.07,1.07,0,0,0,.63.23,1,1,0,0,0,1-1,1,1,0,0,0-.41-.83,6.29,6.29,0,0,0-4-1.18,5.91,5.91,0,0,0-6,6v0a5.75,5.75,0,0,0,6,6A7.39,7.39,0,0,0,10.14,29a1.41,1.41,0,0,0,.71-1.29V24.6A1,1,0,0,0,9.82,23.57Z"/><path class="cls-1" d="M17.48,21.19a2.78,2.78,0,0,0-2.2,1.92v-.89a1,1,0,0,0-1-1,1,1,0,0,0-1,1v6.92a1,1,0,0,0,1,1,1,1,0,0,0,1-1V26.56c0-2.07,1-3.16,2.4-3.41a.94.94,0,0,0,.8-1A.93.93,0,0,0,17.48,21.19Z"/><path class="cls-1" d="M23.18,21.19a7.5,7.5,0,0,0-2.82.51.88.88,0,0,0-.55.8.83.83,0,0,0,.84.83,1.13,1.13,0,0,0,.31,0,5.2,5.2,0,0,1,1.94-.35c1.41,0,2.17.66,2.17,1.91V25a7.31,7.31,0,0,0-2.35-.36c-2.14,0-3.61.93-3.61,2.82v0c0,1.76,1.46,2.7,3.1,2.7A3.55,3.55,0,0,0,25.06,29v.33a.91.91,0,0,0,1,.84,1,1,0,0,0,1-1V24.87a3.63,3.63,0,0,0-.94-2.7A3.92,3.92,0,0,0,23.18,21.19Zm1.94,5.72c0,1.11-1,1.87-2.34,1.87-1,0-1.71-.48-1.71-1.33v0c0-.91.76-1.46,2.05-1.46a5.56,5.56,0,0,1,2,.35Z"/><path class="cls-1" d="M34.16,21.12a3.17,3.17,0,0,0-2.73,1.52v-.43a1,1,0,0,0-1-1,1,1,0,0,0-1,1v6.92a1,1,0,0,0,2,0v-4a2,2,0,0,1,2-2.17c1.19,0,1.87.78,1.87,2.14v4.06a1,1,0,0,0,1,1,1,1,0,0,0,1-1V24.47C37.27,22.45,36.13,21.12,34.16,21.12Z"/><path class="cls-1" d="M43.17,21.19a7.5,7.5,0,0,0-2.82.51.88.88,0,0,0-.55.8.83.83,0,0,0,.84.83,1.13,1.13,0,0,0,.31,0,5.2,5.2,0,0,1,1.94-.35c1.41,0,2.17.66,2.17,1.91V25a7.31,7.31,0,0,0-2.35-.36c-2.14,0-3.61.93-3.61,2.82v0c0,1.76,1.46,2.7,3.1,2.7A3.55,3.55,0,0,0,45.06,29v.33a.91.91,0,0,0,1,.84,1,1,0,0,0,1-1V24.87a3.63,3.63,0,0,0-.94-2.7A3.92,3.92,0,0,0,43.17,21.19Zm1.94,5.72c0,1.11-1,1.87-2.34,1.87-1,0-1.71-.48-1.71-1.33v0c0-.91.76-1.46,2.05-1.46a5.56,5.56,0,0,1,2,.35Z"/><path class="cls-1" d="M57,17.88a1,1,0,0,0-1,1v3.79a3.58,3.58,0,0,0-3-1.54c-2.09,0-4.06,1.64-4.06,4.54v0A4.19,4.19,0,0,0,53,30.23a3.5,3.5,0,0,0,3-1.64v.55a1,1,0,0,0,2,0V18.87A1,1,0,0,0,57,17.88ZM56,25.7a2.63,2.63,0,0,1-2.53,2.8A2.6,2.6,0,0,1,51,25.7v0a2.56,2.56,0,0,1,2.52-2.8A2.62,2.62,0,0,1,56,25.66Z"/><path class="cls-1" d="M64,21.19a7.5,7.5,0,0,0-2.82.51.88.88,0,0,0-.55.8.83.83,0,0,0,.84.83,1.13,1.13,0,0,0,.31,0,5.2,5.2,0,0,1,1.94-.35c1.41,0,2.17.66,2.17,1.91V25a7.31,7.31,0,0,0-2.35-.36c-2.14,0-3.61.93-3.61,2.82v0c0,1.76,1.46,2.7,3.1,2.7A3.55,3.55,0,0,0,65.9,29v.33a.91.91,0,0,0,1,.84,1,1,0,0,0,1-1V24.87a3.63,3.63,0,0,0-.94-2.7A3.92,3.92,0,0,0,64,21.19Zm1.94,5.72c0,1.11-1,1.87-2.34,1.87-1,0-1.71-.48-1.71-1.33v0c0-.91.76-1.46,2.05-1.46a5.56,5.56,0,0,1,2,.35Z"/><path class="cls-1" d="M82.81,24a2.76,2.76,0,0,0,1.66-2.58v0a2.6,2.6,0,0,0-.78-1.92,4.19,4.19,0,0,0-3-1H76.49a1,1,0,0,0-1,1V29a1,1,0,0,0,1,1h4.34c2.58,0,4.29-1.11,4.29-3.18v0A2.84,2.84,0,0,0,82.81,24Zm-5.35-3.76H80.4c1.31,0,2,.56,2,1.47v0c0,1.06-.88,1.57-2.19,1.57H77.46Zm5.62,6.39c0,1-.84,1.59-2.24,1.59H77.46V25.07h3.23c1.61,0,2.39.58,2.39,1.56Z"/><path class="cls-1" d="M93.95,21.21a1,1,0,0,0-1,1v4a1.93,1.93,0,0,1-2,2.15c-1.19,0-1.87-.76-1.87-2.12V22.22a1,1,0,1,0-2,0v4.66c0,2,1.14,3.36,3.11,3.36a3.15,3.15,0,0,0,2.73-1.54v.45a1,1,0,0,0,2,0V22.22A1,1,0,0,0,93.95,21.21Z"/><path class="cls-1" d="M101,24.88c-1-.33-2-.6-2-1.24v0c0-.5.45-.86,1.23-.86a4.77,4.77,0,0,1,2.05.6.79.79,0,0,0,.4.1.81.81,0,0,0,.83-.81.85.85,0,0,0-.48-.76,6,6,0,0,0-2.75-.71c-1.74,0-3.11,1-3.11,2.67v0c0,1.67,1.44,2.2,2.73,2.57,1,.31,2,.55,2,1.23v0c0,.58-.5.94-1.36.94A4.62,4.62,0,0,1,98,27.78a.87.87,0,0,0-.43-.12.8.8,0,0,0-.81.81.77.77,0,0,0,.38.7,6,6,0,0,0,3.33,1c1.82,0,3.25-.91,3.25-2.75v0C103.7,25.86,102.26,25.28,101,24.88Z"/><path class="cls-1" d="M106.87,21.21a1,1,0,0,0-1,1v6.92a1,1,0,0,0,2,0V22.22A1,1,0,0,0,106.87,21.21Z"/><path class="cls-1" d="M115.23,21.12a3.17,3.17,0,0,0-2.73,1.52v-.43a1,1,0,0,0-1-1,1,1,0,0,0-1,1v6.92a1,1,0,0,0,2,0v-4a2,2,0,0,1,2-2.17c1.19,0,1.87.78,1.87,2.14v4.06a1,1,0,0,0,1,1,1,1,0,0,0,1-1V24.47C118.35,22.45,117.21,21.12,115.23,21.12Z"/><path class="cls-1" d="M124.56,21.12a4.34,4.34,0,0,0-4.27,4.56v0a4.36,4.36,0,0,0,4.49,4.54,4.49,4.49,0,0,0,3.15-1.16.88.88,0,0,0,.27-.61.79.79,0,0,0-.8-.81.75.75,0,0,0-.51.18,3.14,3.14,0,0,1-2.07.76,2.44,2.44,0,0,1-2.52-2.22h5.48a.94.94,0,0,0,.94-1A4.14,4.14,0,0,0,124.56,21.12Zm-2.29,3.94a2.37,2.37,0,0,1,2.27-2.3,2.27,2.27,0,0,1,2.22,2.3Z"/><path class="cls-1" d="M134.3,24.88c-1-.33-2-.6-2-1.24v0c0-.5.45-.86,1.23-.86a4.77,4.77,0,0,1,2.05.6.79.79,0,0,0,.4.1.81.81,0,0,0,.83-.81.85.85,0,0,0-.48-.76,6,6,0,0,0-2.75-.71c-1.74,0-3.11,1-3.11,2.67v0c0,1.67,1.44,2.2,2.73,2.57,1,.31,2,.55,2,1.23v0c0,.58-.5.94-1.36.94a4.62,4.62,0,0,1-2.52-.84.87.87,0,0,0-.43-.12.8.8,0,0,0-.81.81.77.77,0,0,0,.38.7,6,6,0,0,0,3.33,1c1.82,0,3.25-.91,3.25-2.75v0C137,25.86,135.58,25.28,134.3,24.88Z"/><path class="cls-1" d="M142.44,24.88c-1-.33-2-.6-2-1.24v0c0-.5.45-.86,1.23-.86a4.77,4.77,0,0,1,2.05.6.79.79,0,0,0,.4.1.81.81,0,0,0,.83-.81.85.85,0,0,0-.48-.76,6,6,0,0,0-2.75-.71c-1.74,0-3.11,1-3.11,2.67v0c0,1.67,1.44,2.2,2.73,2.57,1,.31,2,.55,2,1.23v0c0,.58-.5.94-1.36.94a4.62,4.62,0,0,1-2.52-.84.87.87,0,0,0-.43-.12.8.8,0,0,0-.81.81.77.77,0,0,0,.38.7,6,6,0,0,0,3.33,1c1.82,0,3.25-.91,3.25-2.75v0C145.15,25.86,143.71,25.28,142.44,24.88Z"/><path class="cls-1" d="M106.87,18a1,1,0,0,0-1.14,1v.1a1.15,1.15,0,0,0,2.29,0V19A1,1,0,0,0,106.87,18Z"/><path class="cls-1" d="M141.05,2.25a1.07,1.07,0,0,0,1.1-1.1,1.1,1.1,0,1,0-2.21,0A1.07,1.07,0,0,0,141.05,2.25Z"/><path class="cls-1" d="M144.94,10.71a.92.92,0,0,0-.7-.33H142c-1.9,0-2.94-.89-2.94-2.51a2.17,2.17,0,0,1,2.47-2.28,4.85,4.85,0,0,1,1.21.24c.86.24,1.76.5,2-.34a.73.73,0,0,0-.13-.68c-.52-.71-2.16-1-3.1-1-2.77,0-4.56,1.56-4.56,4a4.35,4.35,0,0,0,.81,2.63h-1.48c-.77,0-1.58-.16-1.73-1.34l0-3.77a1,1,0,0,0-1-1,1,1,0,0,0-1,1v6.25a2.8,2.8,0,0,1-.29,1.51,1.21,1.21,0,0,1-1.12.49c-.68,0-1.14.35-1.14.87,0,.95.88.95,1.26.95,2,0,3.1-1.07,3.27-3.26v-.37a2.75,2.75,0,0,0,1.73.49h7.9a1,1,0,0,0,.91-.78A.88.88,0,0,0,144.94,10.71Z"/><path class="cls-1" d="M127.64,2.25a1.07,1.07,0,0,0,1.1-1.1,1.1,1.1,0,1,0-2.21,0A1.07,1.07,0,0,0,127.64,2.25Z"/><path class="cls-1" d="M129.83,11.26a4.24,4.24,0,0,0,1-2.93V5.27a1,1,0,0,0-1-1,1,1,0,0,0-1,1V8.06a2.51,2.51,0,0,1-.77,2.08,2,2,0,0,1-1.23.39,1.52,1.52,0,0,1-1.25-.59,2.36,2.36,0,0,1-.44-1.45V1a1,1,0,0,0-1-1,1,1,0,0,0-1,1v7.7a3.66,3.66,0,0,0,1,2.71,4,4,0,0,0,2.89,1A3.69,3.69,0,0,0,129.83,11.26Z"/><path class="cls-1" d="M121.56,8a4.12,4.12,0,0,0-1.42-3.16,4.35,4.35,0,0,0-3.59-.89,7.18,7.18,0,0,0-4,2.16V1a1,1,0,1,0-2,0V9.11a8.17,8.17,0,0,0-.49,1.27h-.56c-1.22,0-1.69-.09-1.69-1.1V8.1a3.94,3.94,0,0,0-4.09-4.33,4.17,4.17,0,0,0-3,1.17A4.41,4.41,0,0,0,99.38,8.1a4.12,4.12,0,0,0,1.2,3,4,4,0,0,0,2.89,1.23,4.08,4.08,0,0,0,2.87-1.07,2,2,0,0,0,.55.45,5.19,5.19,0,0,0,2.55.5h6.37C119.19,12.19,121.56,10.46,121.56,8Zm-3.17,1.85a5.56,5.56,0,0,1-2.49.54h-3.66a6,6,0,0,1,4.46-4.47,2.47,2.47,0,0,1,2.07.45,2.32,2.32,0,0,1,.78,1.83A1.9,1.9,0,0,1,118.38,9.84ZM105.82,8.1V9.51a3,3,0,0,1-2.28,1,2,2,0,0,1-1.42-.62,2.46,2.46,0,0,1-.66-1.77,2.7,2.7,0,0,1,.59-1.7,2.12,2.12,0,0,1,1.69-.78C105,5.63,105.82,6.62,105.82,8.1Z"/><path class="cls-1" d="M90.62,11.71a3.06,3.06,0,0,0,2,.6,3.61,3.61,0,0,0,2.79-1.15,4.34,4.34,0,0,0,1-2.94V5.15a1,1,0,0,0-1-1,1,1,0,0,0-1,1V7.94a2.82,2.82,0,0,1-.74,2.14,1.75,1.75,0,0,1-1.26.49c-.81,0-1.73-.26-1.73-1.53l0-3.77a1,1,0,0,0-1-1,1,1,0,0,0-1,1v6.25A2.8,2.8,0,0,1,88.36,13a1.21,1.21,0,0,1-1.12.49c-.68,0-1.14.35-1.14.87,0,.95.88.95,1.26.95C89.59,15.34,90.58,14.25,90.62,11.71Z"/><path class="cls-1" d="M94.2,13.13a1.1,1.1,0,1,0,1.1,1.1A1.07,1.07,0,0,0,94.2,13.13Z"/><path class="cls-1" d="M83.62,2.25a1.07,1.07,0,0,0,1.1-1.1,1.1,1.1,0,1,0-2.21,0A1.07,1.07,0,0,0,83.62,2.25Z"/><path class="cls-1" d="M82.84,12.31H83a3.61,3.61,0,0,0,2.79-1.15,4.34,4.34,0,0,0,1-2.94V5.15a1,1,0,0,0-1-1,1,1,0,0,0-1,1V7.94A2.82,2.82,0,0,1,84,10.09a1.77,1.77,0,0,1-1.16.49H81.58a1.65,1.65,0,0,1-1.73-1.73V5.23a1,1,0,1,0-2,0v3.3c0,1.88-.9,2.08-1.29,2.08-.91,0-1.45-.62-1.45-1.65V6.53a1.06,1.06,0,0,0-1-1,.91.91,0,0,0-.69.25,1.08,1.08,0,0,0-.34.77V8.69c0,1.56-.77,1.88-1.41,1.88-.91,0-1.45-.62-1.45-1.65V6.53a1.06,1.06,0,0,0-1-1,.91.91,0,0,0-.69.25,1.08,1.08,0,0,0-.34.77V9.2A7.92,7.92,0,0,1,68,11.79a1.64,1.64,0,0,1-1.75,1.06,2.36,2.36,0,0,1-2.43-2.28,4.1,4.1,0,0,1,1.15-2.69.74.74,0,0,0,.21-.75,1.06,1.06,0,0,0-.78-.7,1,1,0,0,0-1,.35l-.1.11a4.92,4.92,0,0,0-1.46,3.6,4,4,0,0,0,1.25,3,4.46,4.46,0,0,0,3.08,1.14,3.65,3.65,0,0,0,3.86-3,2.79,2.79,0,0,0,1.84.62,3.32,3.32,0,0,0,2.58-1.12,2.86,2.86,0,0,0,2.41,1.12,2.78,2.78,0,0,0,2.29-1l.15-.22a2.87,2.87,0,0,0,.41.45,3.19,3.19,0,0,0,2,.8"/><path class="cls-1" d="M89.68,2.25a1.07,1.07,0,0,0,1.1-1.1,1.1,1.1,0,1,0-2.21,0A1.07,1.07,0,0,0,89.68,2.25Z"/><path class="cls-1" d="M104.91,2.25a1.07,1.07,0,0,0,1.1-1.1,1.1,1.1,0,0,0-2.21,0A1.07,1.07,0,0,0,104.91,2.25Z"/><path class="cls-1" d="M102.22,2.25a1.07,1.07,0,0,0,1.1-1.1,1.1,1.1,0,1,0-2.21,0A1.07,1.07,0,0,0,102.22,2.25Z"/></g></g></svg>