<svg xmlns="http://www.w3.org/2000/svg" viewBox="0 0 85.41 58.78"><defs><style>.cls-1{fill:#fff;}</style></defs><title>Asset 8</title><g id="Layer_2" data-name="Layer 2"><g id="Layer_1-2" data-name="Layer 1"><g id="rCeFt0"><path class="cls-1" d="M24.55,27.94l-.23.15c-.55-.52-1.11-1-1.63-1.57A14.54,14.54,0,0,1,19,20.4a12.4,12.4,0,0,1,.73-8.73,17.27,17.27,0,0,1,5.31-6.53A24.21,24.21,0,0,1,34.56.74,28,28,0,0,1,42.4,0,32.56,32.56,0,0,1,53.86,2.81a28.3,28.3,0,0,1,7.32,4.54A17.56,17.56,0,0,1,65.6,13a12,12,0,0,1,1.21,6.14A11.59,11.59,0,0,1,64,25.79a17.66,17.66,0,0,1-5.5,4.3,27.72,27.72,0,0,1-7.6,2.58,35.36,35.36,0,0,1-7.25.65A26.53,26.53,0,0,1,32.89,31a15.49,15.49,0,0,1-5-3.44,8.31,8.31,0,0,1-2.24-4.2,6.57,6.57,0,0,1,1.89-6.11,11.86,11.86,0,0,1,4.7-2.83c.71-.25,1.44-.43,2.18-.62.23-.06.28-.14.28-.36,0-1.94,0-3.87,0-5.81,0-.22.05-.29.28-.29h6.59c.23,0,.28.06.28.29,0,1.93,0,3.86,0,5.79,0,.19,0,.26.25.29a10.75,10.75,0,0,1,5.58,2.39,6.19,6.19,0,0,1,2.22,4,5.85,5.85,0,0,1-3.26,6.25,9.06,9.06,0,0,1-3.63.94c-.85,0-1.7,0-2.55,0l-.12,0a1,1,0,0,1,0-.13,1.31,1.31,0,0,1,0-.15,7.89,7.89,0,0,0,6.51-2.26v-.07H45.31v-.29q0-3.84,0-7.68a.4.4,0,0,0-.21-.39,9.37,9.37,0,0,0-3-1.21l-.25,0v9.58H34.71v-.24q0-4,0-7.95a.39.39,0,0,1,.19-.36,9.5,9.5,0,0,1,3.41-1.39,13.42,13.42,0,0,1,3.49-.31,7.87,7.87,0,0,0,.85,0l-1-.25a13.28,13.28,0,0,0-3.42-.37,10.65,10.65,0,0,0-5.92,1.82,7.75,7.75,0,0,0-3.37,5.67,8.34,8.34,0,0,0,3.41,7.86,13.77,13.77,0,0,0,5.61,2.56,21.86,21.86,0,0,0,6,.42,31.29,31.29,0,0,0,4.61-.55,22.45,22.45,0,0,0,9.55-4.15,15.25,15.25,0,0,0,4.78-6,11.22,11.22,0,0,0,.88-5.69,13.15,13.15,0,0,0-1.12-4.34A11.92,11.92,0,0,0,58,6.29a20.47,20.47,0,0,0-6.27-2.49A34.83,34.83,0,0,0,46.25,3a37.9,37.9,0,0,0-5.16-.08A30.2,30.2,0,0,0,27.27,7,17.15,17.15,0,0,0,22,11.74a12,12,0,0,0-2.17,5.43A10.58,10.58,0,0,0,20.38,22a13.13,13.13,0,0,0,3.92,5.7l.2.18Z"/><path class="cls-1" d="M6.64,48.94v.27q0,4,0,8c0,.29,0,.29.29.29H9.21c0,.29,0,.57,0,.85,0,0-.07.08-.12.1a.6.6,0,0,1-.18,0H0v-1H.24c.62,0,1.23,0,1.85,0,.21,0,.26-.06.26-.26q0-6.14,0-12.29V40.11H0v-.94H9.21c0,.27,0,.55,0,.83,0,0-.13.1-.2.1H6.66v7.71h6.45c.21,0,.28-.05.28-.27q0-3.59,0-7.19c0-.22-.07-.27-.28-.27h-2c-.17,0-.24,0-.23-.22s0-.47,0-.72H20c0,.28,0,.57,0,.85,0,0-.12.08-.19.08H17.66V57.48H20c0,.3,0,.57,0,.84,0,0-.06.09-.1.11a.54.54,0,0,1-.18,0H11.14c-.22,0-.31-.05-.29-.28s0-.43,0-.66h2.28c.17,0,.25,0,.25-.23q0-4.05,0-8.1c0-.16,0-.24-.22-.23H6.64Z"/><path class="cls-1" d="M83.25,57.48h2.17v.95h-8c-.22,0-.29-.07-.27-.28s-.05-.51.06-.64.4,0,.62,0h1c.15,0,.19-.05.19-.19,0-3,0-6,0-8.95a6.11,6.11,0,0,0-.17-1.3,1.73,1.73,0,0,0-2.18-1.39,4,4,0,0,0-3.27,3.63c0,.55,0,1.1,0,1.65q0,3.12,0,6.23c0,.32,0,.32.33.32h1.75v.94H67.25c-.2,0-.28,0-.26-.26s0-.44,0-.69h2c.29,0,.29,0,.29-.29q0-4.15,0-8.3c0-1,0-2.06,0-3.09,0-.2-.05-.26-.25-.25H67.2c-.16,0-.22,0-.22-.22s0-.47,0-.71h6.39v2l0,0,.15-.17a6.55,6.55,0,0,1,7.64-1.81,3.3,3.3,0,0,1,1.94,2.76,10.28,10.28,0,0,1,.07,1.24q0,4.23,0,8.46C83.23,57.24,83.24,57.35,83.25,57.48Z"/><path class="cls-1" d="M58.43,58.78a8.85,8.85,0,0,1-4.52-1.05,6.88,6.88,0,0,1-3.54-5.07A7,7,0,0,1,51.09,48a7.14,7.14,0,0,1,3.83-3.23,8.44,8.44,0,0,1,3.83-.61,7.63,7.63,0,0,1,6,3.29A7.24,7.24,0,0,1,65.94,51a6.79,6.79,0,0,1-5,7.42A8,8,0,0,1,58.43,58.78Zm3-7.57c0-.36,0-.71,0-1.07,0-.84-.06-1.68-.19-2.5a2.77,2.77,0,0,0-2-2.41A4.2,4.2,0,0,0,58,45.07a2.69,2.69,0,0,0-2.57,1.69,6.4,6.4,0,0,0-.51,2.31A33.94,33.94,0,0,0,55,55.13a3.44,3.44,0,0,0,.65,1.73A3.11,3.11,0,0,0,58.6,58,2.66,2.66,0,0,0,61,56.09a5.77,5.77,0,0,0,.23-.79A18.24,18.24,0,0,0,61.46,51.2Z"/><path class="cls-1" d="M30.93,58.43v-.93h2.29V37.55H30.94v-.93h6.47v.3q0,10.11,0,20.23c0,.33,0,.33.32.33h1.85v.94Z"/><path class="cls-1" d="M49.81,57.49v.93l-.14,0c-1.36,0-2.71,0-4.07,0a3.34,3.34,0,0,1-1.67-.49,2.66,2.66,0,0,1-1.3-2.43c0-3.2,0-6.39,0-9.59,0-.1,0-.19,0-.32H40.39v-.94h2c.18,0,.23-.05.22-.23,0-1.66,0-3.32,0-5,0-.09,0-.18,0-.28H46.5c0,.09,0,.19,0,.28,0,1.65,0,3.29,0,4.94,0,.22.06.28.27.27h2.74c.17,0,.24.05.23.23a3,3,0,0,0,0,.49c0,.19-.07.23-.24.23H46.81c-.3,0-.3,0-.3.29q0,5.69,0,11.37c0,.21.05.28.27.28.91,0,1.82,0,2.74,0Z"/><path class="cls-1" d="M52.13,24.61H50L50,24.5a6.22,6.22,0,0,0-1.1-8,9.91,9.91,0,0,0-3.65-2,.33.33,0,0,1-.27-.39q0-3.24,0-6.48c0-.21.05-.28.27-.28h6.61c.19,0,.27,0,.27.25q0,8.4,0,16.8Z"/><path class="cls-1" d="M21.49,57.49c.69,0,1.34,0,2,0,.21,0,.28,0,.28-.27q0-5.7,0-11.39c0-.21-.05-.28-.27-.28-.44,0-.89,0-1.34,0-.21,0-.51.06-.61-.05s0-.4,0-.62,0-.16,0-.25h6.39v.31q0,6.11,0,12.22c0,.33,0,.33.32.33H30c0,.3,0,.58,0,.87,0,0-.06.07-.1.08a.54.54,0,0,1-.15,0H21.77c-.23,0-.3-.07-.28-.29S21.49,57.73,21.49,57.49Z"/><path class="cls-1" d="M27.72,39.16v2.23H23.59V39.16Z"/></g></g></g></svg>