<svg xmlns="http://www.w3.org/2000/svg" viewBox="0 0 112.88 50.02"><defs><style>.cls-1{fill:#fff;}</style></defs><title>Asset 7</title><g id="Layer_2" data-name="Layer 2"><g id="Layer_1-2" data-name="Layer 1"><path class="cls-1" d="M.49,45.47a7.64,7.64,0,0,0,1.26,2.28,4,4,0,0,0,3.13,1.48,2.59,2.59,0,0,0,1.75-.64,2.25,2.25,0,0,0,.74-1.79A2.5,2.5,0,0,0,6.63,45a13.19,13.19,0,0,0-2-1.46L2.78,42.4a6.5,6.5,0,0,1-1.3-1,3.25,3.25,0,0,1-.9-2.22,3.63,3.63,0,0,1,1.07-2.67A3.82,3.82,0,0,1,4.47,35.4a5.45,5.45,0,0,1,1.75.36,7.44,7.44,0,0,0,1.17.36.67.67,0,0,0,.54-.19,1.34,1.34,0,0,0,.23-.53h.44l.47,4.52H8.55a4.76,4.76,0,0,0-1.66-2.85,3.92,3.92,0,0,0-2.26-.81,2.38,2.38,0,0,0-1.52.51,1.72,1.72,0,0,0-.65,1.42,2.08,2.08,0,0,0,.5,1.4,6.44,6.44,0,0,0,1.54,1.23L6.36,42a9.75,9.75,0,0,1,2.47,2,3.41,3.41,0,0,1,.71,2.15A3.58,3.58,0,0,1,8.27,48.9,4.66,4.66,0,0,1,5.06,50,6.27,6.27,0,0,1,3,49.65a7.77,7.77,0,0,0-1.23-.37.52.52,0,0,0-.5.23A1.45,1.45,0,0,0,1.1,50H.63L0,45.47Z"/><path class="cls-1" d="M24.16,49.34A3.53,3.53,0,0,0,25.84,49q.38-.29.38-1.52V38a2.07,2.07,0,0,0-.38-1.51,3,3,0,0,0-1.68-.4V35.7h6.28v.39a3,3,0,0,0-1.68.4A2.07,2.07,0,0,0,28.38,38v9.44q0,1.23.38,1.52a3.53,3.53,0,0,0,1.68.39v.39H24.16Z"/><path class="cls-1" d="M47.17,49.34a3.13,3.13,0,0,0,1.51-.42q.35-.29.35-1.49V38a2.2,2.2,0,0,0-.34-1.49,2.62,2.62,0,0,0-1.52-.42V35.7h5.72a11.32,11.32,0,0,1,4.89,1q3.6,1.71,3.61,6.11a7.24,7.24,0,0,1-.65,3,6.17,6.17,0,0,1-2,2.42,6.61,6.61,0,0,1-1.72.94,11.62,11.62,0,0,1-4,.6h-5.9Zm4.27-.56A2.18,2.18,0,0,0,52.5,49a7.71,7.71,0,0,0,4.09-1q2.47-1.52,2.47-5.18a6,6,0,0,0-2-4.92,7.1,7.1,0,0,0-4.61-1.41,2.06,2.06,0,0,0-1,.15c-.17.1-.25.33-.25.68V48.1a.76.76,0,0,0,.25.68"/><path class="cls-1" d="M74.12,49.34a2.41,2.41,0,0,0,1.52-.47,3,3,0,0,0,.3-1.68V38a2.22,2.22,0,0,0-.34-1.47,2.48,2.48,0,0,0-1.49-.44V35.7H80a8.64,8.64,0,0,1,3.06.47,3.23,3.23,0,0,1,2.32,3.24,3,3,0,0,1-1,2.43A5.66,5.66,0,0,1,81.54,43l4.37,5.39a3,3,0,0,0,.81.72,2.61,2.61,0,0,0,1,.29v.39H84.34L79,43.2l-.93.05v4.18a2.09,2.09,0,0,0,.36,1.49,3,3,0,0,0,1.56.42v.39h-5.9ZM81.38,42a2.58,2.58,0,0,0,1.69-2.61,2.5,2.5,0,0,0-1.51-2.51,5.33,5.33,0,0,0-2.15-.36,2.7,2.7,0,0,0-1.1.13c-.13.09-.2.29-.2.61v5.22A10.71,10.71,0,0,0,81.38,42"/><path class="cls-1" d="M98.21,49.74v-.39a1.72,1.72,0,0,0,1.23-.62,16.9,16.9,0,0,0,1.4-2.86l4.42-10.42h.42l5.29,12a5.09,5.09,0,0,0,.84,1.48,2,2,0,0,0,1.06.39v.39h-5.4v-.39a4.73,4.73,0,0,0,1.2-.2c.18-.08.27-.27.27-.58a2.53,2.53,0,0,0-.1-.55,5.86,5.86,0,0,0-.29-.82l-.85-2h-5.59q-.83,2.08-1,2.54a2.37,2.37,0,0,0-.16.73.75.75,0,0,0,.44.74,3.38,3.38,0,0,0,1,.19v.39Zm9.14-5.45-2.43-5.85-2.44,5.85Z"/><path class="cls-1" d="M33,6a3.19,3.19,0,0,1,1.19,1,11,11,0,0,0,1.68,1.62l.24.18a6.61,6.61,0,0,0-1.68,3.85c0,1.47.35,2.2,1,2.2a4.43,4.43,0,0,0,1.47-.38,9.81,9.81,0,0,0,2.27-1.15c.49-.35.74-1.15.74-2.41S39.47,9,38,8c0-.09.18-.24.18-.26.28-.38.53-.7.7-1,.42-.56.7-.94.84-1.12.42-.62.63-.76.63-1.12v-1a.57.57,0,0,0-.1-.26,2.36,2.36,0,0,0-.31.41c-1.5,2-2.34,3.17-2.52,3.38l-.25.32c-.63-.41-1.08-.7-1.33-.85a3,3,0,0,1-.91-.82H35l.28,0c.14,0,.21,0,.21-.12s-.14-.24-.45-.38c-.66-.32-1.22-.62-1.71-.88l-.1-.06a1.61,1.61,0,0,0-.35-.15s-.11.06-.14.18l0,.23-.14.62-.1.47c0,.18.18.32.49.47m4.83,4.05.81.68c.31.26.49.47.49.62s-.14.26-.38.41a14.67,14.67,0,0,1-1.68.82,4.11,4.11,0,0,1-1.26.38c-.31,0-.49-.21-.49-.65A6.92,6.92,0,0,1,36.89,9.4Z"/><path class="cls-1" d="M44.79,9a1.52,1.52,0,0,1,.45.09l.28.06c.14,0,.21-.06.21-.16s-.18-.28-.49-.5L44,7.63a.73.73,0,0,0-.21-.13.73.73,0,0,0-.38-.19c-.14,0-.25.13-.28.34L43,8.38a1.29,1.29,0,0,0-.1.41q0,.19.42.19a5.26,5.26,0,0,0,.95,1.66c.52.66.8,1,.84,1.06a9.78,9.78,0,0,1,.87,1.5A10.11,10.11,0,0,1,44,15c-1.43,1.1-2.48,1.88-3.22,2.35a71.35,71.35,0,0,1-6.4,3.82c-.8.41-1.68.84-2.62,1.28l-1.43.66-.35.16c-.1,0-.14.06-.14.09s0,.06.1.06a10,10,0,0,0,1.68-.31c1.29-.28,2.31-.53,3-.72a21.32,21.32,0,0,0,3.15-1,23.15,23.15,0,0,0,3.29-2.1,34.23,34.23,0,0,0,4-3.22,4.88,4.88,0,0,0,1.54-3.38,4,4,0,0,0-.7-1.85c-.59-1-1-1.56-1.19-1.85"/><path class="cls-1" d="M82.61,8.92c-.17-.32-.35-.5-.49-.5s-.17.09-.25.26l-.52,1.47a3.32,3.32,0,0,1,.77,1.09,2.35,2.35,0,0,1-1.4.47c-.87,0-1.29-.35-1.29-1a5.73,5.73,0,0,1,.14-.79c0-.26,0-.38-.14-.38s-.28.18-.45.5a4.68,4.68,0,0,1-3.6,2.7,1.38,1.38,0,0,1-1.54-1.26c0-.15.14-.79.14-1,0-.38-.28-.35-.81.09a11.45,11.45,0,0,1-7.35,2.56h-.59v0a1.72,1.72,0,0,1-1.36-.82,10.69,10.69,0,0,1-.8-2.56c-.18-1-.32-1.64-.39-2a20,20,0,0,0-1.54-4.93,15.63,15.63,0,0,0-1-1.7c-.39-.59-.6-.88-.7-.88s-.14.06-.18.21a.85.85,0,0,1-.1.29L59,1.26a1,1,0,0,0-.14.47s0,.09.07.21a13.2,13.2,0,0,1,1.75,3.58,11.35,11.35,0,0,1,.77,3.7v.12a19.35,19.35,0,0,1-3.81,3.26c-2.2,1.56-4.09,2.35-5.63,2.35s-2.13-.62-2.13-1.88A7.6,7.6,0,0,1,51,9.57a.43.43,0,0,0,.11-.26c0-.09-.07-.15-.17-.15s-.42.29-.74.85a7.36,7.36,0,0,0-1.08,3.64c0,1.91,1,3.11,2.66,3.11S55.46,15.85,58,14a11.73,11.73,0,0,0,3.71-3.7A2,2,0,0,1,62,10c.07,0,.1.18.14.38l.14,1.12q.38,3.05,2.86,3.32v0h.52A9.89,9.89,0,0,0,71.8,13,6.89,6.89,0,0,1,73,12.18a1.21,1.21,0,0,0,0,.35,2,2,0,0,0,2.2,2,4,4,0,0,0,3.43-2.55,1.74,1.74,0,0,0,2,1.56A2.61,2.61,0,0,0,83,10.63a3.47,3.47,0,0,0-.42-1.7"/><polygon class="cls-1" points="37.29 2.28 38.62 1.07 36.89 0 35.22 1.54 36.55 2.37 35.16 3.61 36.86 4.65 38.59 3.08 37.29 2.28"/></g></g></svg>