<svg xmlns="http://www.w3.org/2000/svg" viewBox="0 0 131.44 33.33"><defs><style>.cls-1{fill:#fff;}</style></defs><title>Asset 5</title><g id="Layer_2" data-name="Layer 2"><g id="Layer_1-2" data-name="Layer 1"><path class="cls-1" d="M9.82,24.12H6.59a.91.91,0,0,0-.91.89.89.89,0,0,0,.91.88H8.88v2.17a4.73,4.73,0,0,1-2.8.88A3.87,3.87,0,0,1,2.14,24.8v0A3.92,3.92,0,0,1,5.9,20.67a4.41,4.41,0,0,1,2.82.91,1.07,1.07,0,0,0,.63.23,1,1,0,0,0,1-1A1,1,0,0,0,9.94,20,6.29,6.29,0,0,0,6,18.8a5.91,5.91,0,0,0-6,6v0a5.75,5.75,0,0,0,6,6,7.39,7.39,0,0,0,4.12-1.26,1.41,1.41,0,0,0,.71-1.29v-3.1A1,1,0,0,0,9.82,24.12Z"/><path class="cls-1" d="M17.48,21.73a2.78,2.78,0,0,0-2.2,1.92v-.89a1,1,0,0,0-1-1,1,1,0,0,0-1,1v6.92a1,1,0,0,0,1,1,1,1,0,0,0,1-1V27.1c0-2.07,1-3.16,2.4-3.41a.94.94,0,0,0,.8-1A.93.93,0,0,0,17.48,21.73Z"/><path class="cls-1" d="M23.18,21.73a7.5,7.5,0,0,0-2.82.51.87.87,0,0,0-.55.8.83.83,0,0,0,.84.83,1.13,1.13,0,0,0,.31,0,5.2,5.2,0,0,1,1.94-.35c1.41,0,2.17.66,2.17,1.91v.22a7.31,7.31,0,0,0-2.35-.36c-2.14,0-3.61.93-3.61,2.82v0c0,1.76,1.46,2.7,3.1,2.7a3.55,3.55,0,0,0,2.85-1.28v.33a.91.91,0,0,0,1,.84,1,1,0,0,0,1-1V25.41a3.63,3.63,0,0,0-.94-2.7A3.92,3.92,0,0,0,23.18,21.73Zm1.94,5.72c0,1.11-1,1.87-2.34,1.87-1,0-1.71-.48-1.71-1.33v0c0-.91.76-1.46,2.05-1.46a5.56,5.56,0,0,1,2,.35Z"/><path class="cls-1" d="M34.16,21.67a3.17,3.17,0,0,0-2.73,1.52v-.43a1,1,0,0,0-1-1,1,1,0,0,0-1,1v6.92a1,1,0,0,0,2,0v-4a2,2,0,0,1,2-2.17c1.19,0,1.87.78,1.87,2.14v4.06a1,1,0,0,0,1,1,1,1,0,0,0,1-1V25C37.27,23,36.13,21.67,34.16,21.67Z"/><path class="cls-1" d="M43.17,21.73a7.5,7.5,0,0,0-2.82.51.87.87,0,0,0-.55.8.83.83,0,0,0,.84.83,1.13,1.13,0,0,0,.31,0,5.2,5.2,0,0,1,1.94-.35c1.41,0,2.17.66,2.17,1.91v.22a7.31,7.31,0,0,0-2.35-.36c-2.14,0-3.61.93-3.61,2.82v0c0,1.76,1.46,2.7,3.1,2.7a3.56,3.56,0,0,0,2.85-1.28v.33a.91.91,0,0,0,1,.84,1,1,0,0,0,1-1V25.41a3.63,3.63,0,0,0-.94-2.7A3.92,3.92,0,0,0,43.17,21.73Zm1.94,5.72c0,1.11-1,1.87-2.34,1.87-1,0-1.71-.48-1.71-1.33v0c0-.91.76-1.46,2.05-1.46a5.56,5.56,0,0,1,2,.35Z"/><path class="cls-1" d="M57,18.42a1,1,0,0,0-1,1v3.79a3.58,3.58,0,0,0-3-1.54c-2.09,0-4.06,1.64-4.06,4.54v0A4.19,4.19,0,0,0,53,30.78a3.5,3.5,0,0,0,3-1.64v.55a1,1,0,0,0,2,0V19.41A1,1,0,0,0,57,18.42Zm-1,7.82A2.63,2.63,0,0,1,53.51,29,2.6,2.6,0,0,1,51,26.24v0a2.56,2.56,0,0,1,2.52-2.8A2.62,2.62,0,0,1,56,26.21Z"/><path class="cls-1" d="M64,21.73a7.5,7.5,0,0,0-2.82.51.87.87,0,0,0-.55.8.83.83,0,0,0,.84.83,1.13,1.13,0,0,0,.31,0,5.2,5.2,0,0,1,1.94-.35c1.41,0,2.17.66,2.17,1.91v.22a7.31,7.31,0,0,0-2.35-.36c-2.14,0-3.61.93-3.61,2.82v0c0,1.76,1.46,2.7,3.1,2.7A3.55,3.55,0,0,0,65.9,29.5v.33a.91.91,0,0,0,1,.84,1,1,0,0,0,1-1V25.41a3.63,3.63,0,0,0-.94-2.7A3.92,3.92,0,0,0,64,21.73ZM66,27.45c0,1.11-1,1.87-2.34,1.87-1,0-1.71-.48-1.71-1.33v0c0-.91.76-1.46,2.05-1.46a5.56,5.56,0,0,1,2,.35Z"/><path class="cls-1" d="M79.95,23.87c-2.24-.53-2.77-.93-2.77-1.82v0c0-.76.7-1.37,1.89-1.37a4.82,4.82,0,0,1,2.67.88,1,1,0,0,0,.53.15,1,1,0,0,0,1-.94.92.92,0,0,0-.45-.81,6.38,6.38,0,0,0-3.68-1.08c-2.3,0-4,1.37-4,3.36v0c0,2.14,1.39,2.87,3.86,3.46,2.15.5,2.62.94,2.62,1.77v0c0,.86-.8,1.46-2.05,1.46a5,5,0,0,1-3.25-1.19,1,1,0,0,0-1.56.76,1,1,0,0,0,.4.78,7.22,7.22,0,0,0,4.36,1.46c2.44,0,4.14-1.29,4.14-3.46v0C83.66,25.34,82.4,24.47,79.95,23.87Z"/><path class="cls-1" d="M93.42,21.75a1,1,0,0,0-1,1v.46a3.58,3.58,0,0,0-3-1.54c-2.09,0-4.06,1.64-4.06,4.54v0a4.19,4.19,0,0,0,4.06,4.54,3.5,3.5,0,0,0,3-1.64v3.2a1,1,0,0,0,2,0V22.76A1,1,0,0,0,93.42,21.75Zm-1,4.49A2.63,2.63,0,0,1,89.92,29a2.6,2.6,0,0,1-2.52-2.8v0a2.56,2.56,0,0,1,2.52-2.8,2.62,2.62,0,0,1,2.53,2.8Z"/><path class="cls-1" d="M103.7,21.75a1,1,0,0,0-1,1v4a1.93,1.93,0,0,1-2,2.15c-1.19,0-1.87-.76-1.87-2.12V22.76a1,1,0,1,0-2,0v4.66c0,2,1.14,3.36,3.11,3.36a3.15,3.15,0,0,0,2.73-1.54v.45a1,1,0,0,0,2,0V22.76A1,1,0,0,0,103.7,21.75Z"/><path class="cls-1" d="M110.7,21.73a7.5,7.5,0,0,0-2.82.51.87.87,0,0,0-.55.8.83.83,0,0,0,.84.83,1.13,1.13,0,0,0,.31,0,5.2,5.2,0,0,1,1.94-.35c1.41,0,2.17.66,2.17,1.91v.22a7.31,7.31,0,0,0-2.35-.36c-2.14,0-3.61.93-3.61,2.82v0c0,1.76,1.46,2.7,3.1,2.7a3.55,3.55,0,0,0,2.85-1.28v.33a.91.91,0,0,0,1,.84,1,1,0,0,0,1-1V25.41a3.63,3.63,0,0,0-.94-2.7A3.92,3.92,0,0,0,110.7,21.73Zm1.94,5.72c0,1.11-1,1.87-2.34,1.87-1,0-1.71-.48-1.71-1.33v0c0-.91.76-1.46,2.05-1.46a5.56,5.56,0,0,1,2,.35Z"/><path class="cls-1" d="M121.15,21.73a2.78,2.78,0,0,0-2.2,1.92v-.89a1,1,0,0,0-1-1,1,1,0,0,0-1,1v6.92a1,1,0,0,0,1,1,1,1,0,0,0,1-1V27.1c0-2.07,1-3.16,2.4-3.41a.94.94,0,0,0,.8-1A.93.93,0,0,0,121.15,21.73Z"/><path class="cls-1" d="M127.28,21.67A4.34,4.34,0,0,0,123,26.22v0a4.36,4.36,0,0,0,4.49,4.54,4.49,4.49,0,0,0,3.15-1.16.88.88,0,0,0,.27-.61.79.79,0,0,0-.8-.81.75.75,0,0,0-.51.18,3.14,3.14,0,0,1-2.07.76A2.44,2.44,0,0,1,125,26.93h5.48a.94.94,0,0,0,.94-1A4.14,4.14,0,0,0,127.28,21.67ZM125,25.61a2.37,2.37,0,0,1,2.27-2.3,2.27,2.27,0,0,1,2.22,2.3Z"/><path class="cls-1" d="M127.33,2.79a1.07,1.07,0,0,0,1.1-1.1,1.1,1.1,0,1,0-2.21,0A1.07,1.07,0,0,0,127.33,2.79Z"/><path class="cls-1" d="M131.22,11.25a.92.92,0,0,0-.7-.33h-2.2c-1.9,0-2.94-.89-2.94-2.51a2.17,2.17,0,0,1,2.47-2.28,4.85,4.85,0,0,1,1.21.24c.86.24,1.76.5,2-.34a.73.73,0,0,0-.13-.68c-.52-.71-2.16-1-3.1-1-2.77,0-4.56,1.56-4.56,4a4.35,4.35,0,0,0,.81,2.63h-1.48c-.77,0-1.58-.16-1.73-1.34l0-3.77a1,1,0,0,0-1-1,1,1,0,0,0-1,1v6.25a2.8,2.8,0,0,1-.29,1.51,1.21,1.21,0,0,1-1.12.49c-.68,0-1.14.35-1.14.87,0,.95.88.95,1.26.95,2,0,3.1-1.07,3.27-3.26v-.37a2.75,2.75,0,0,0,1.73.49h7.9a1,1,0,0,0,.91-.78A.88.88,0,0,0,131.22,11.25Z"/><path class="cls-1" d="M113.93,2.79a1.07,1.07,0,0,0,1.1-1.1,1.1,1.1,0,1,0-2.21,0A1.07,1.07,0,0,0,113.93,2.79Z"/><path class="cls-1" d="M116.11,11.81a4.24,4.24,0,0,0,1-2.93V5.81a1,1,0,0,0-1-1,1,1,0,0,0-1,1V8.61a2.51,2.51,0,0,1-.77,2.08,2,2,0,0,1-1.23.39,1.52,1.52,0,0,1-1.25-.59A2.36,2.36,0,0,1,111.42,9V1.57a1,1,0,0,0-1-1,1,1,0,0,0-1,1v7.7a3.66,3.66,0,0,0,1,2.71,4,4,0,0,0,2.89,1A3.69,3.69,0,0,0,116.11,11.81Z"/><path class="cls-1" d="M107.84,8.53a4.12,4.12,0,0,0-1.42-3.16,4.35,4.35,0,0,0-3.59-.89,7.18,7.18,0,0,0-4,2.16V1.57a1,1,0,1,0-2,0V9.65a8.17,8.17,0,0,0-.49,1.27h-.56c-1.22,0-1.69-.09-1.69-1.1V8.64A3.94,3.94,0,0,0,90,4.32a4.17,4.17,0,0,0-3,1.17,4.41,4.41,0,0,0-1.38,3.15,4.12,4.12,0,0,0,1.2,3,4,4,0,0,0,2.89,1.23,4.08,4.08,0,0,0,2.87-1.07,2,2,0,0,0,.55.45,5.19,5.19,0,0,0,2.55.5h6.37C105.48,12.74,107.84,11,107.84,8.53Zm-3.17,1.85a5.56,5.56,0,0,1-2.49.54H98.51A6,6,0,0,1,103,6.45a2.47,2.47,0,0,1,2.07.45,2.32,2.32,0,0,1,.78,1.83A1.9,1.9,0,0,1,104.67,10.38ZM92.11,8.64v1.41a3,3,0,0,1-2.28,1,2,2,0,0,1-1.42-.62,2.46,2.46,0,0,1-.66-1.77,2.7,2.7,0,0,1,.59-1.7A2.12,2.12,0,0,1,90,6.17C91.27,6.17,92.11,7.17,92.11,8.64Z"/><path class="cls-1" d="M91.2,2.79a1.07,1.07,0,0,0,1.1-1.1,1.1,1.1,0,1,0-2.21,0A1.07,1.07,0,0,0,91.2,2.79Z"/><path class="cls-1" d="M88.51,2.79a1.07,1.07,0,0,0,1.1-1.1,1.1,1.1,0,1,0-2.21,0A1.07,1.07,0,0,0,88.51,2.79Z"/><path class="cls-1" d="M81.55,4.74a1,1,0,0,0-1,1V9c0,1.84-.9,2-1.29,2-.92,0-1.45-.59-1.45-1.61V7.06a1.06,1.06,0,0,0-1-1,.91.91,0,0,0-.69.25,1.08,1.08,0,0,0-.34.77V9.22c0,1.22-.48,1.84-1.41,1.84s-1.45-.59-1.45-1.61V7.06a1.06,1.06,0,0,0-1-1,.91.91,0,0,0-.69.25,1.07,1.07,0,0,0-.34.77V9.22c0,1.19-.46,1.76-1.41,1.76a1.36,1.36,0,0,1-1.34-.61A2.86,2.86,0,0,1,68,9.09V8.7c0-2.18-1.79-3.34-4.45-3.34H61.89l3.56-3.83a.89.89,0,0,0,.27-.7.84.84,0,0,0-.32-.61.89.89,0,0,0-1.25,0L59.6,5.15a1.15,1.15,0,0,0-.34.81A1.18,1.18,0,0,0,60.45,7.1H63a4.05,4.05,0,0,1,2.32.5A1.6,1.6,0,0,1,65.94,9a1.62,1.62,0,0,1-.88,1.53,3.64,3.64,0,0,1-1.68.35H58V8.11A3.46,3.46,0,0,0,54.25,4.3a4,4,0,0,0-3,1.3,4.6,4.6,0,0,0-1.13,3.11,3.61,3.61,0,0,0,1.37,3.08,5.86,5.86,0,0,0,3.55.94h.95c-.17,1-.75,1.45-2,1.45a6,6,0,0,1-.92-.09,1.72,1.72,0,0,0-1.15.06h0a.87.87,0,0,0-.36.71c0,.94,1.14,1,2.51,1a4,4,0,0,0,2.66-.77A4,4,0,0,0,58,12.72h5.74a5.14,5.14,0,0,0,3.11-1,2.76,2.76,0,0,0,2.24,1h.59a3.13,3.13,0,0,0,2.58-1,2.59,2.59,0,0,0,2.29,1.09,3.27,3.27,0,0,0,2.58-1.08,3.15,3.15,0,0,0,4.7.06,4,4,0,0,0,.74-2.48V5.76A1,1,0,0,0,81.55,4.74ZM56,10.94h-.88c-1.91,0-2.94-.36-2.94-2.27a3.36,3.36,0,0,1,.43-1.81,1.69,1.69,0,0,1,1.52-.78,1.61,1.61,0,0,1,1.44.71A3.4,3.4,0,0,1,56,8.67Z"/><path class="cls-1" d="M47.49,4.66a1,1,0,0,0-1,1V8.47a2.78,2.78,0,0,1-.72,2.11,1.85,1.85,0,0,1-1.2.49c-.47,0-1.24,0-1.26,0-.9,0-1.73-.26-1.73-1.49l0-3.77a1,1,0,0,0-1-1,1,1,0,0,0-1,1v6.25a2.8,2.8,0,0,1-.29,1.51,1.21,1.21,0,0,1-1.12.49c-.68,0-1.14.35-1.14.87,0,.95.88.95,1.26.95,2.24,0,3.22-1.09,3.27-3.63a2.77,2.77,0,0,0,1.79.56h1.35c2.33,0,3.78-1.55,3.78-4.05V5.68A1,1,0,0,0,47.49,4.66Z"/><path class="cls-1" d="M47.28,15.87a1.1,1.1,0,1,0-1.1-1.1A1.07,1.07,0,0,0,47.28,15.87Z"/><path class="cls-1" d="M44.59,15.87a1.1,1.1,0,1,0-1.1-1.1A1.07,1.07,0,0,0,44.59,15.87Z"/></g></g></svg>