<svg xmlns="http://www.w3.org/2000/svg" viewBox="0 0 220.77 99.51"><defs><style>.cls-1{fill:#483185;}</style></defs><title>Asset 1</title><g id="Layer_2" data-name="Layer 2"><g id="Layer_1-2" data-name="Layer 1"><path class="cls-1" d="M48.53,11.59a6.32,6.32,0,0,0,2.06.35A6.67,6.67,0,0,0,55,10.24a5.78,5.78,0,0,0,4.12,1.56,6.06,6.06,0,0,0,5.23-2.48,8.44,8.44,0,0,0,.88-7.13A2.22,2.22,0,0,0,62.5.58,2.38,2.38,0,0,0,61,3.5a3.81,3.81,0,0,1-.14,3,1.91,1.91,0,0,1-1.65.61c-.58,0-1.48,0-1.77-1.87a7.37,7.37,0,0,0-.16-2,2.25,2.25,0,0,0-2.43-1.81,2.32,2.32,0,0,0-2,2.34,14.41,14.41,0,0,0,.07,1.51,2.54,2.54,0,0,1-.7,1.37,2.3,2.3,0,0,1-2.27.51A2,2,0,0,1,48.73,6a3.24,3.24,0,0,1,.1-2.43A2.41,2.41,0,0,0,47.6.51a2.2,2.2,0,0,0-2.91,1.3,8.11,8.11,0,0,0,0,6.19A6.52,6.52,0,0,0,48.53,11.59Z"/><path class="cls-1" d="M79.18,56.54c.18-1.68.44-3.29.73-4.86,4.45.07,9.28.17,13.8.19,16.09.05,25.93-5.69,26-17.77,0-10.15-6.91-17.86-17.68-17.9-7,0-13.53,4.39-18.84,11l.33-22.86C83.5,1.59,82,0,79.36,0S75.21,1.56,75.2,4.36l-.11,36.85q-.69,1.68-1.28,3.4l-3.34,0c-7.43,0-9.21-4-9.3-8l0-11.67c0-2.8-1.48-4.38-4.13-4.39s-4.15,1.56-4.16,4.36l-.05,14c0,3.85-3.95,5.94-8.76,5.92-5.47,0-8.57-2-8.54-8.78l0-11.2,1.36.3c2.65.6,4.15-.13,4.65-2.53C42,20.59,40.8,18.9,38,18.28a84.92,84.92,0,0,0-14.53-1.92C8.85,16.54,0,23.57,0,34.95,0,43,6.75,49.77,15.38,50.6a25.75,25.75,0,0,0,7.32-.35c2.82-.43,3.66-2.45,2.67-4.47-1-2.2-2.81-2.72-5.3-2.26a17.87,17.87,0,0,1-4.67.08,7.7,7.7,0,0,1-7.11-7.86c0-7.7,5.51-12.07,16-12.3a29.44,29.44,0,0,1,3.06.16l0,12.47c0,10.5,6.53,15.77,16.81,15.81,5.49,0,10.44-1.82,13.58-4.9C60.16,49.74,64,51.6,70.45,51.6h1.37c-.29,1.28-.55,2.57-.76,3.85a4.12,4.12,0,1,0,8.12,1.08ZM102,23.2c6.3,0,9.44,4.57,9.41,10.87,0,7.88-5.88,10.83-17.65,10.79-4.07,0-8.1-.09-12.11-.16C85.86,31.24,94.12,23.18,102,23.2Z"/><path class="cls-1" d="M143,52.89c13.84,0,17.53-8.17,17.57-18.67l0-8.93c0-2.8-1.48-4.38-4.13-4.39s-4.15,1.56-4.16,4.36l0,8.93c0,6.65-1.11,11.7-9.25,11.7-7.3,0-8.67-3.93-8.65-12l.09-29.35c0-2.8-1.48-4.38-4.13-4.39s-4.15,1.56-4.16,4.36l-.09,29.35C126,45.6,130.88,52.89,143,52.89Z"/><path class="cls-1" d="M147.75,8.94a4.26,4.26,0,0,0,4.54-4.36,4.44,4.44,0,0,0-8.88,0A4.22,4.22,0,0,0,147.75,8.94Z"/><path class="cls-1" d="M13.76,9.29a4.62,4.62,0,0,0,4.54-4.54A4.62,4.62,0,0,0,13.79.19,4.47,4.47,0,0,0,9.43,4.73,4.47,4.47,0,0,0,13.76,9.29Z"/><path class="cls-1" d="M25.21,9.12a4.46,4.46,0,0,0,0-8.93A4.41,4.41,0,0,0,20.7,4.73,4.36,4.36,0,0,0,25.21,9.12Z"/><path class="cls-1" d="M50,64a4.44,4.44,0,1,0-8.88,0,4.32,4.32,0,0,0,4.34,4.39A4.37,4.37,0,0,0,50,64Z"/><path class="cls-1" d="M56.94,59.46a4.46,4.46,0,1,0,4.34,4.39A4.32,4.32,0,0,0,56.94,59.46Z"/><path class="cls-1" d="M205.69,8.94a4.22,4.22,0,0,0,4.37-4.36A4.32,4.32,0,0,0,205.72.19a4.37,4.37,0,0,0-4.54,4.36A4.26,4.26,0,0,0,205.69,8.94Z"/><path class="cls-1" d="M216.66,61.76H187.56a2.29,2.29,0,1,0,0,4.58h29.09a2.29,2.29,0,1,0,0-4.58Z"/><path class="cls-1" d="M33,61.76H3.94a2.29,2.29,0,1,0,0,4.58H33a2.29,2.29,0,1,0,0-4.58Z"/><path class="cls-1" d="M220.73,46c-.27-1.89-1.91-4-5.92-3.23a70.39,70.39,0,0,1-8.63,1.09,11.25,11.25,0,0,1-12.11-11.05c0-6.19,4.58-9.16,11-9.16a19.59,19.59,0,0,1,7.81,1.62A3.66,3.66,0,0,0,218,23.42c.81-1.62-.71-4.08-3.77-5.39a26.06,26.06,0,0,0-9.16-1.89c-12.12,0-19.39,7.27-19.39,17,0,5.13,1.77,8.28,3.9,10.42-4.16-.44-8.44-1-12.38-2.72V25.2c0-2.83-1.48-4.44-4-4.44S169,22.37,169,25.2V41.49c0,7.27-2.15,19.79-18.31,19.79-12.93,0-19.79-4.31-34.6-4.31a73.1,73.1,0,0,0-25.85,4.71c-2,.81-3,2-3,3.37a3.48,3.48,0,0,0,3.5,3.5,4.79,4.79,0,0,0,1.35-.27,71.05,71.05,0,0,1,23.56-4.58c14.95,0,20.33,4.44,34.74,4.44,15.15,0,24.26-6.66,26.33-19.54,4.43,1.6,11.24,2.81,22.41,2.81a144.07,144.07,0,0,0,17.5-1.08C219.92,49.81,221,48.46,220.73,46Z"/><path class="cls-1" d="M54.62,89.59h-4.8a1.34,1.34,0,0,0-1.35,1.33,1.32,1.32,0,0,0,1.35,1.3h3.4v3.22a7,7,0,0,1-4.16,1.3c-3.52,0-5.86-2.61-5.86-6.15v0a5.83,5.83,0,0,1,5.59-6.08A6.54,6.54,0,0,1,53,85.82a1.59,1.59,0,0,0,.94.34,1.51,1.51,0,0,0,1.5-1.5,1.54,1.54,0,0,0-.61-1.23,9.35,9.35,0,0,0-5.88-1.75A8.78,8.78,0,0,0,40,90.6v0A8.55,8.55,0,0,0,49,99.51a11,11,0,0,0,6.13-1.87,2.09,2.09,0,0,0,1.06-1.92v-4.6A1.5,1.5,0,0,0,54.62,89.59Z"/><path class="cls-1" d="M67.77,82H61.61a1.5,1.5,0,0,0-1.53,1.53V97.83a1.51,1.51,0,0,0,3,0V93.21h3.81l4.18,5.34a1.73,1.73,0,0,0,1.48.79A1.43,1.43,0,0,0,74,97.93a1.75,1.75,0,0,0-.49-1.16l-3.3-4.16a5.1,5.1,0,0,0,3.91-5.14v0a5.21,5.21,0,0,0-1.43-3.72A6.94,6.94,0,0,0,67.77,82Zm3.32,5.66c0,1.75-1.38,2.88-3.54,2.88H63.11V84.74h4.41c2.24,0,3.57,1,3.57,2.85Z"/><path class="cls-1" d="M87.06,83a1.89,1.89,0,0,0-1.8-1.23h-.15A1.92,1.92,0,0,0,83.3,83L76.9,97.24a1.55,1.55,0,0,0-.2.69,1.39,1.39,0,0,0,1.4,1.4,1.46,1.46,0,0,0,1.4-1L81,95.05h8.37l1.4,3.22a1.56,1.56,0,0,0,1.48,1.06,1.42,1.42,0,0,0,1.43-1.45,1.32,1.32,0,0,0-.17-.64Zm-4.95,9.4,3-7,3,7Z"/><path class="cls-1" d="M110.42,81.86a1.48,1.48,0,0,0-1.48,1.48V93.92l-8.61-11.15a1.91,1.91,0,0,0-1.58-.89h-.32a1.52,1.52,0,0,0-1.53,1.53V97.86a1.49,1.49,0,0,0,3,0V86.93l8.86,11.47a1.9,1.9,0,0,0,1.57.91h.12a1.47,1.47,0,0,0,1.48-1.5V83.34A1.49,1.49,0,0,0,110.42,81.86Z"/><path class="cls-1" d="M125.53,83a1.89,1.89,0,0,0-1.8-1.23h-.15A1.92,1.92,0,0,0,121.76,83l-6.4,14.27a1.55,1.55,0,0,0-.2.69,1.39,1.39,0,0,0,1.4,1.4,1.46,1.46,0,0,0,1.4-1l1.45-3.32h8.37l1.4,3.22a1.56,1.56,0,0,0,1.48,1.06,1.42,1.42,0,0,0,1.43-1.45,1.32,1.32,0,0,0-.17-.64Zm-4.95,9.4,3-7,3,7Z"/><path class="cls-1" d="M141.8,82h-4.9a1.5,1.5,0,0,0-1.53,1.53V97.69a1.5,1.5,0,0,0,1.53,1.53h4.9c5.41,0,9.15-3.77,9.15-8.61v0C151,85.7,147.21,82,141.8,82Zm6,8.66a5.61,5.61,0,0,1-6,5.81h-3.4V84.74h3.4a5.65,5.65,0,0,1,6,5.86Z"/><path class="cls-1" d="M156.32,81.86a1.5,1.5,0,0,0-1.53,1.5V97.83a1.51,1.51,0,0,0,3,0V83.36A1.49,1.49,0,0,0,156.32,81.86Z"/><path class="cls-1" d="M171.6,83a1.89,1.89,0,0,0-1.8-1.23h-.15A1.92,1.92,0,0,0,167.84,83l-6.4,14.27a1.55,1.55,0,0,0-.2.69,1.39,1.39,0,0,0,1.4,1.4,1.46,1.46,0,0,0,1.4-1l1.45-3.32h8.37l1.4,3.22a1.56,1.56,0,0,0,1.48,1.06,1.42,1.42,0,0,0,1.43-1.45,1.32,1.32,0,0,0-.17-.64Zm-4.95,9.4,3-7,3,7Z"/></g></g></svg>